<svg width="332" height="344" viewBox="0 0 332 344" fill="none" xmlns="http://www.w3.org/2000/svg">
<path fill-rule="evenodd" clip-rule="evenodd" d="M92.0148 73C92.8137 32.5472 125.856 0 166.5 0C207.144 0 240.186 32.5472 240.985 73H312C323.046 73 332 81.9543 332 93V324C332 335.046 323.046 344 312 344H20C8.95431 344 0 335.046 0 324V93C0 81.9543 8.9543 73 20 73H92.0148Z" fill="#0297D4"/>
<path d="M195.9 80.0493C197.735 81.2796 200.24 80.7975 201.281 78.849C204.032 73.6984 205.631 67.9924 205.943 62.1289C206.327 54.9299 204.758 47.761 201.402 41.3805C198.046 35 193.029 29.645 186.879 25.8819C180.73 22.1188 173.679 20.0874 166.47 20.0028C159.261 19.9181 152.164 21.7832 145.928 25.4008C139.692 29.0184 134.55 34.2541 131.045 40.554C127.54 46.8539 125.803 53.984 126.018 61.19C126.192 67.0592 127.656 72.8012 130.286 78.015C131.281 79.9874 133.774 80.5283 135.637 79.3414L138.514 77.5088C140.377 76.322 140.896 73.8575 139.981 71.847C138.412 68.4 137.537 64.6628 137.424 60.8505C137.27 55.7002 138.512 50.6041 141.017 46.1014C143.522 41.5987 147.197 37.8566 151.654 35.271C156.111 32.6854 161.184 31.3523 166.336 31.4129C171.488 31.4734 176.528 32.9252 180.923 35.6148C185.318 38.3044 188.904 42.1318 191.303 46.6921C193.701 51.2525 194.823 56.3763 194.549 61.5216C194.346 65.3302 193.383 69.0458 191.733 72.4549C190.771 74.4434 191.232 76.9194 193.067 78.1497L195.9 80.0493Z" fill="white"/>
<path d="M171.281 73.6374C170.398 76.9326 167.011 78.8882 163.716 78.0052C160.421 77.1223 158.465 73.7352 159.348 70.44C160.231 67.1448 173.194 42.6324 173.194 42.6324C173.194 42.6324 172.164 70.3422 171.281 73.6374Z" fill="white"/>
<path d="M48.8223 123H45.873V111.34H39.5742V123H36.625V108.908H48.8223V123ZM52.1621 126.564V112.248H55.0137V113.908H55.1895C55.7461 112.756 56.8887 112.072 58.4121 112.072C61.0977 112.072 62.7773 114.182 62.7773 117.609V117.629C62.7773 121.086 61.1367 123.166 58.4121 123.166C56.9375 123.166 55.7363 122.453 55.1895 121.281H55.0137V126.564H52.1621ZM57.4355 120.803C58.9395 120.803 59.877 119.602 59.877 117.629V117.609C59.877 115.637 58.9492 114.436 57.4355 114.436C55.9316 114.436 54.9844 115.637 54.9844 117.609V117.629C54.9844 119.602 55.9414 120.803 57.4355 120.803ZM70.0332 123.225C66.7617 123.225 64.7793 121.086 64.7793 117.639V117.629C64.7793 114.211 66.7812 112.014 69.916 112.014C73.0508 112.014 75.0039 114.162 75.0039 117.414V118.303H67.6016C67.6309 120.07 68.5781 121.096 70.0918 121.096C71.3418 121.096 72.0352 120.432 72.2305 120.021L72.2598 119.963H74.916L74.8965 120.061C74.5645 121.408 73.1777 123.225 70.0332 123.225ZM69.9648 114.152C68.7246 114.152 67.8066 114.992 67.6309 116.516H72.2695C72.0938 114.953 71.2051 114.152 69.9648 114.152ZM78.9102 125.783H76.3125V120.812H77.1426C77.9336 120.363 78.2363 119.143 78.334 117.697L78.6855 112.248H87.2109V120.812H88.832V125.783H86.2344V123H78.9102V125.783ZM84.3594 120.812V114.436H81.0977L80.8535 117.873C80.7754 118.986 80.541 119.953 80.0918 120.637V120.812H84.3594ZM90.8145 123V112.248H100.512V123H97.6602V114.396H93.666V123H90.8145ZM108.324 123.225C105.014 123.225 103.021 121.125 103.021 117.629V117.609C103.021 114.143 105.043 112.014 108.324 112.014C111.605 112.014 113.627 114.133 113.627 117.609V117.629C113.627 121.135 111.635 123.225 108.324 123.225ZM108.324 120.988C109.838 120.988 110.707 119.748 110.707 117.629V117.609C110.707 115.51 109.828 114.25 108.324 114.25C106.811 114.25 105.941 115.51 105.941 117.609V117.629C105.941 119.748 106.801 120.988 108.324 120.988ZM119.545 118.088C119.35 121.271 118.393 123.098 115.971 123.098C115.502 123.098 115.141 123.02 114.984 122.971V120.559C115.102 120.588 115.355 120.627 115.639 120.627C116.635 120.627 116.947 119.377 117.025 117.863L117.357 112.248H125.463V123H122.611V114.406H119.799L119.545 118.088ZM131.439 123.166C129.389 123.166 127.934 121.896 127.934 119.943V119.924C127.934 117.99 129.428 116.857 132.104 116.701L134.701 116.545V115.656C134.701 114.729 134.066 114.201 132.895 114.201C131.869 114.201 131.215 114.562 130.99 115.197L130.971 115.236H128.334L128.344 115.148C128.568 113.264 130.346 112.014 133.051 112.014C135.902 112.014 137.514 113.361 137.514 115.656V123H134.701V121.574H134.525C133.979 122.57 132.846 123.166 131.439 123.166ZM130.717 119.768C130.717 120.588 131.41 121.086 132.396 121.086C133.715 121.086 134.701 120.217 134.701 119.084V118.293L132.533 118.43C131.312 118.508 130.717 118.967 130.717 119.748V119.768ZM147.953 114.396H143.354V123H140.502V112.248H147.953V114.396ZM153.041 123.166C150.99 123.166 149.535 121.896 149.535 119.943V119.924C149.535 117.99 151.029 116.857 153.705 116.701L156.303 116.545V115.656C156.303 114.729 155.668 114.201 154.496 114.201C153.471 114.201 152.816 114.562 152.592 115.197L152.572 115.236H149.936L149.945 115.148C150.17 113.264 151.947 112.014 154.652 112.014C157.504 112.014 159.115 113.361 159.115 115.656V123H156.303V121.574H156.127C155.58 122.57 154.447 123.166 153.041 123.166ZM152.318 119.768C152.318 120.588 153.012 121.086 153.998 121.086C155.316 121.086 156.303 120.217 156.303 119.084V118.293L154.135 118.43C152.914 118.508 152.318 118.967 152.318 119.748V119.768ZM166.83 123.225C163.559 123.225 161.576 121.086 161.576 117.639V117.629C161.576 114.211 163.578 112.014 166.713 112.014C169.848 112.014 171.801 114.162 171.801 117.414V118.303H164.398C164.428 120.07 165.375 121.096 166.889 121.096C168.139 121.096 168.832 120.432 169.027 120.021L169.057 119.963H171.713L171.693 120.061C171.361 121.408 169.975 123.225 166.83 123.225ZM166.762 114.152C165.521 114.152 164.604 114.992 164.428 116.516H169.066C168.891 114.953 168.002 114.152 166.762 114.152ZM177.016 123H174.33V112.248H178.021L180.834 119.26H181.01L183.832 112.248H187.475V123H184.789V115.832H184.613L181.889 122.414H179.906L177.191 115.832H177.016V123ZM190.521 123V112.248H193.373V115.373H195.502C198.041 115.373 199.662 116.857 199.662 119.182V119.201C199.662 121.516 198.041 123 195.502 123H190.521ZM201.361 123V112.248H204.213V123H201.361ZM195.004 117.521H193.373V120.852H195.004C196.088 120.852 196.781 120.168 196.781 119.182V119.162C196.781 118.176 196.088 117.521 195.004 117.521ZM212.221 110.793C209.984 110.793 208.5 109.387 208.5 107.395H210.629C210.658 108.43 211.264 109.221 212.221 109.221C213.178 109.221 213.783 108.43 213.803 107.395H215.932C215.932 109.387 214.457 110.793 212.221 110.793ZM207.26 123V112.248H210.062V118.977H210.268L214.369 112.248H217.172V123H214.369V116.193H214.154L210.062 123H207.26ZM225.385 123V112.248H235.082V123H232.23V114.396H228.236V123H225.385ZM238.119 126.564V112.248H240.971V113.908H241.146C241.703 112.756 242.846 112.072 244.369 112.072C247.055 112.072 248.734 114.182 248.734 117.609V117.629C248.734 121.086 247.094 123.166 244.369 123.166C242.895 123.166 241.693 122.453 241.146 121.281H240.971V126.564H238.119ZM243.393 120.803C244.896 120.803 245.834 119.602 245.834 117.629V117.609C245.834 115.637 244.906 114.436 243.393 114.436C241.889 114.436 240.941 115.637 240.941 117.609V117.629C240.941 119.602 241.898 120.803 243.393 120.803ZM256.039 123.225C252.729 123.225 250.736 121.125 250.736 117.629V117.609C250.736 114.143 252.758 112.014 256.039 112.014C259.32 112.014 261.342 114.133 261.342 117.609V117.629C261.342 121.135 259.35 123.225 256.039 123.225ZM256.039 120.988C257.553 120.988 258.422 119.748 258.422 117.629V117.609C258.422 115.51 257.543 114.25 256.039 114.25C254.525 114.25 253.656 115.51 253.656 117.609V117.629C253.656 119.748 254.516 120.988 256.039 120.988ZM268.764 123.234C265.258 123.234 263.383 120.9 263.383 116.691V116.672C263.383 111.135 265.17 108.537 269.154 108.391L270.531 108.342C271.43 108.303 272.533 108.156 273.354 107.893V110.119C272.914 110.354 271.811 110.549 270.707 110.588L269.398 110.637C267.006 110.715 265.932 111.779 265.59 114.328L265.561 114.514H265.736C266.42 113.215 267.65 112.502 269.34 112.502C272.201 112.502 274.047 114.514 274.047 117.609V117.629C274.047 121.047 272.035 123.234 268.764 123.234ZM268.715 120.998C270.258 120.998 271.146 119.738 271.146 117.707V117.688C271.146 115.764 270.248 114.641 268.715 114.641C267.182 114.641 266.283 115.764 266.283 117.688V117.707C266.283 119.738 267.162 120.998 268.715 120.998ZM281.342 123.225C278.07 123.225 276.088 121.086 276.088 117.639V117.629C276.088 114.211 278.09 112.014 281.225 112.014C284.359 112.014 286.312 114.162 286.312 117.414V118.303H278.91C278.939 120.07 279.887 121.096 281.4 121.096C282.65 121.096 283.344 120.432 283.539 120.021L283.568 119.963H286.225L286.205 120.061C285.873 121.408 284.486 123.225 281.342 123.225ZM281.273 114.152C280.033 114.152 279.115 114.992 278.939 116.516H283.578C283.402 114.953 282.514 114.152 281.273 114.152ZM296.293 114.396H291.693V123H288.842V112.248H296.293V114.396Z" fill="white"/>
<path d="M54.2646 162.088C53.9131 162.088 53.667 162.026 53.5615 161.974V160.559C53.667 160.585 53.8867 160.629 54.2646 160.629C55.2139 160.629 55.8379 160.225 56.3389 159.293L52.0059 149.317H53.6934L57.0947 157.535H57.2354L60.5576 149.317H62.2012L58.3164 158.37C57.2881 160.77 56.4004 162.088 54.2646 162.088ZM70.832 162H69.3027V158.054H69.1621C68.6523 158.414 67.9229 158.625 66.9033 158.625C64.6182 158.625 63.4316 157.254 63.4316 155.232V152.525H64.9609V155.232C64.9609 156.48 65.6113 157.271 66.9033 157.271C68.0898 157.271 68.9072 156.964 69.3027 156.524V152.525H70.832V162ZM73.8379 162V152.525H75.3672V159.592H75.5078L80.1924 152.525H81.7217V162H80.1924V154.934H80.0518L75.3672 162H73.8379ZM91.6006 152.525V153.791H88.5332V162H87.0039V153.791H83.9365V152.525H91.6006ZM93.8066 162V152.525H95.3359V155.566H97.1904C99.3613 155.566 100.75 156.814 100.75 158.774V158.792C100.75 160.752 99.3613 162 97.1904 162H93.8066ZM102.402 162V152.525H103.932V162H102.402ZM97.1904 156.832H95.3359V160.734H97.1904C98.4385 160.734 99.2207 159.961 99.2207 158.792V158.774C99.2207 157.597 98.4297 156.832 97.1904 156.832ZM106.938 162V152.525H110.954C112.747 152.525 113.793 153.501 113.793 154.986V155.004C113.793 155.944 113.134 156.832 112.246 157.017V157.157C113.45 157.324 114.215 158.168 114.215 159.267V159.284C114.215 160.928 113.011 162 110.972 162H106.938ZM108.467 156.533H110.488C111.719 156.533 112.272 156.059 112.272 155.162V155.145C112.272 154.336 111.798 153.791 110.734 153.791H108.467V156.533ZM108.467 160.734H110.91C112.07 160.734 112.659 160.207 112.659 159.258V159.24C112.659 158.238 111.982 157.799 110.62 157.799H108.467V160.734ZM119.409 162.167C117.607 162.167 116.245 161.077 116.245 159.354V159.337C116.245 157.649 117.493 156.674 119.699 156.542L122.415 156.375V155.514C122.415 154.345 121.703 153.712 120.288 153.712C119.154 153.712 118.407 154.134 118.161 154.872L118.152 154.898H116.623L116.632 154.846C116.878 153.36 118.319 152.358 120.341 152.358C122.652 152.358 123.944 153.545 123.944 155.514V162H122.415V160.603H122.274C121.677 161.613 120.684 162.167 119.409 162.167ZM117.81 159.319C117.81 160.277 118.627 160.84 119.726 160.84C121.281 160.84 122.415 159.82 122.415 158.467V157.605L119.884 157.764C118.442 157.852 117.81 158.361 117.81 159.302V159.319ZM130.782 162.167C128.075 162.167 126.44 160.269 126.44 157.298V157.289C126.44 154.362 128.11 152.358 130.686 152.358C133.261 152.358 134.825 154.274 134.825 157.104V157.702H128.005C128.049 159.662 129.13 160.805 130.817 160.805C132.101 160.805 132.892 160.198 133.146 159.627L133.182 159.548H134.711L134.693 159.618C134.368 160.901 133.015 162.167 130.782 162.167ZM130.677 153.721C129.271 153.721 128.198 154.679 128.031 156.48H133.27C133.111 154.608 132.074 153.721 130.677 153.721ZM143.526 152.525V153.791H140.459V162H138.93V153.791H135.862V152.525H143.526ZM149.266 162.167C146.611 162.167 144.915 160.242 144.915 157.236V157.219C144.915 154.274 146.603 152.358 149.257 152.358C151.56 152.358 152.939 153.686 153.221 155.373L153.229 155.426H151.709L151.7 155.399C151.463 154.468 150.619 153.712 149.257 153.712C147.552 153.712 146.479 155.083 146.479 157.219V157.236C146.479 159.416 147.569 160.813 149.257 160.813C150.531 160.813 151.34 160.251 151.691 159.196L151.709 159.144L153.221 159.135L153.203 159.231C152.816 160.945 151.542 162.167 149.266 162.167ZM160.48 162V158.607H158.872L156.455 162H154.653L157.299 158.326C155.963 157.948 155.154 156.964 155.154 155.672V155.654C155.154 153.712 156.543 152.525 158.714 152.525H162.01V162H160.48ZM158.714 157.342H160.48V153.791H158.714C157.466 153.791 156.719 154.477 156.719 155.619V155.637C156.719 156.63 157.475 157.342 158.714 157.342ZM170.896 165.322C170.693 165.322 170.43 165.305 170.219 165.27V164.013C170.403 164.048 170.641 164.057 170.852 164.057C171.722 164.057 172.249 163.661 172.592 162.571L172.768 162.009L169.261 152.525H170.896L173.497 160.321H173.638L176.23 152.525H177.839L174.139 162.58C173.356 164.707 172.574 165.322 170.896 165.322ZM179.896 164.505H178.472V160.734H179.263C179.957 160.277 180.3 159.082 180.388 157.808L180.757 152.525H187.217V160.734H188.729V164.505H187.305V162H179.896V164.505ZM185.688 160.734V153.791H182.11L181.812 157.843C181.724 158.994 181.478 160.005 181.029 160.594V160.734H185.688ZM193.325 162.167C191.523 162.167 190.161 161.077 190.161 159.354V159.337C190.161 157.649 191.409 156.674 193.615 156.542L196.331 156.375V155.514C196.331 154.345 195.619 153.712 194.204 153.712C193.07 153.712 192.323 154.134 192.077 154.872L192.068 154.898H190.539L190.548 154.846C190.794 153.36 192.235 152.358 194.257 152.358C196.568 152.358 197.86 153.545 197.86 155.514V162H196.331V160.603H196.19C195.593 161.613 194.6 162.167 193.325 162.167ZM191.726 159.319C191.726 160.277 192.543 160.84 193.642 160.84C195.197 160.84 196.331 159.82 196.331 158.467V157.605L193.8 157.764C192.358 157.852 191.726 158.361 191.726 159.302V159.319ZM203.046 158.291C202.844 160.901 202.035 162.088 200.453 162.088C200.128 162.088 199.882 162.035 199.759 161.991V160.611C199.838 160.638 200.075 160.673 200.304 160.673C201.174 160.673 201.525 159.574 201.622 158.168L202.026 152.525H208.223V162H206.693V153.791H203.397L203.046 158.291ZM215.104 162.167C212.397 162.167 210.763 160.269 210.763 157.298V157.289C210.763 154.362 212.433 152.358 215.008 152.358C217.583 152.358 219.147 154.274 219.147 157.104V157.702H212.327C212.371 159.662 213.452 160.805 215.14 160.805C216.423 160.805 217.214 160.198 217.469 159.627L217.504 159.548H219.033L219.016 159.618C218.69 160.901 217.337 162.167 215.104 162.167ZM214.999 153.721C213.593 153.721 212.521 154.679 212.354 156.48H217.592C217.434 154.608 216.396 153.721 214.999 153.721ZM227.91 162V157.711H223.217V162H221.688V152.525H223.217V156.445H227.91V152.525H229.439V162H227.91ZM238.668 162V157.711H233.975V162H232.445V152.525H233.975V156.445H238.668V152.525H240.197V162H238.668ZM247.105 162.167C244.407 162.167 242.737 160.304 242.737 157.271V157.254C242.737 154.213 244.407 152.358 247.105 152.358C249.804 152.358 251.474 154.213 251.474 157.254V157.271C251.474 160.304 249.804 162.167 247.105 162.167ZM247.105 160.813C248.898 160.813 249.909 159.504 249.909 157.271V157.254C249.909 155.013 248.898 153.712 247.105 153.712C245.312 153.712 244.302 155.013 244.302 157.254V157.271C244.302 159.504 245.312 160.813 247.105 160.813ZM257.898 162.167C255.244 162.167 253.548 160.242 253.548 157.236V157.219C253.548 154.274 255.235 152.358 257.89 152.358C260.192 152.358 261.572 153.686 261.854 155.373L261.862 155.426H260.342L260.333 155.399C260.096 154.468 259.252 153.712 257.89 153.712C256.185 153.712 255.112 155.083 255.112 157.219V157.236C255.112 159.416 256.202 160.813 257.89 160.813C259.164 160.813 259.973 160.251 260.324 159.196L260.342 159.144L261.854 159.135L261.836 159.231C261.449 160.945 260.175 162.167 257.898 162.167ZM270.687 152.525V153.791H267.619V162H266.09V153.791H263.022V152.525H270.687ZM272.893 162V152.525H274.422V155.566H276.276C278.447 155.566 279.836 156.814 279.836 158.774V158.792C279.836 160.752 278.447 162 276.276 162H272.893ZM276.276 156.832H274.422V160.734H276.276C277.524 160.734 278.307 159.961 278.307 158.792V158.774C278.307 157.597 277.516 156.832 276.276 156.832ZM81.1152 183.167C78.4609 183.167 76.7646 181.242 76.7646 178.236V178.219C76.7646 175.274 78.4521 173.358 81.1064 173.358C83.4092 173.358 84.7891 174.686 85.0703 176.373L85.0791 176.426H83.5586L83.5498 176.399C83.3125 175.468 82.4688 174.712 81.1064 174.712C79.4014 174.712 78.3291 176.083 78.3291 178.219V178.236C78.3291 180.416 79.4189 181.813 81.1064 181.813C82.3809 181.813 83.1895 181.251 83.541 180.196L83.5586 180.144L85.0703 180.135L85.0527 180.231C84.666 181.945 83.3916 183.167 81.1152 183.167ZM93.9033 173.525V174.791H90.8359V183H89.3066V174.791H86.2393V173.525H93.9033ZM99.6602 183.167C96.9619 183.167 95.292 181.304 95.292 178.271V178.254C95.292 175.213 96.9619 173.358 99.6602 173.358C102.358 173.358 104.028 175.213 104.028 178.254V178.271C104.028 181.304 102.358 183.167 99.6602 183.167ZM99.6602 181.813C101.453 181.813 102.464 180.504 102.464 178.271V178.254C102.464 176.013 101.453 174.712 99.6602 174.712C97.8672 174.712 96.8564 176.013 96.8564 178.254V178.271C96.8564 180.504 97.8672 181.813 99.6602 181.813ZM111.508 183V179.607H109.899L107.482 183H105.681L108.326 179.326C106.99 178.948 106.182 177.964 106.182 176.672V176.654C106.182 174.712 107.57 173.525 109.741 173.525H113.037V183H111.508ZM109.741 178.342H111.508V174.791H109.741C108.493 174.791 107.746 175.477 107.746 176.619V176.637C107.746 177.63 108.502 178.342 109.741 178.342ZM122.266 183V178.711H117.572V183H116.043V173.525H117.572V177.445H122.266V173.525H123.795V183H122.266ZM128.813 178.685H128.33V183H126.801V173.525H128.33V177.489H128.813L132.479 173.525H134.315L130.053 177.99L134.482 183H132.522L128.813 178.685ZM136.592 183V173.525H138.121V180.592H138.262L142.946 173.525H144.476V183H142.946V175.934H142.806L138.121 183H136.592ZM155.875 183.176C153.607 183.176 152.184 181.901 151.894 180.188L151.885 180.135H153.414L153.432 180.196C153.73 181.242 154.618 181.822 155.884 181.822C157.466 181.822 158.556 180.592 158.688 178.737H154.284V177.472H158.661C158.477 175.767 157.369 174.703 155.884 174.703C154.557 174.703 153.722 175.424 153.449 176.312L153.414 176.426H151.885L151.911 176.285C152.219 174.65 153.634 173.35 155.884 173.35C158.538 173.35 160.27 175.266 160.27 178.219V178.236C160.27 181.251 158.529 183.176 155.875 183.176ZM162.801 183V173.525H166.817C168.61 173.525 169.656 174.501 169.656 175.986V176.004C169.656 176.944 168.997 177.832 168.109 178.017V178.157C169.313 178.324 170.078 179.168 170.078 180.267V180.284C170.078 181.928 168.874 183 166.835 183H162.801ZM164.33 177.533H166.352C167.582 177.533 168.136 177.059 168.136 176.162V176.145C168.136 175.336 167.661 174.791 166.598 174.791H164.33V177.533ZM164.33 181.734H166.773C167.934 181.734 168.522 181.207 168.522 180.258V180.24C168.522 179.238 167.846 178.799 166.483 178.799H164.33V181.734ZM175.272 183.167C173.471 183.167 172.108 182.077 172.108 180.354V180.337C172.108 178.649 173.356 177.674 175.562 177.542L178.278 177.375V176.514C178.278 175.345 177.566 174.712 176.151 174.712C175.018 174.712 174.271 175.134 174.024 175.872L174.016 175.898H172.486L172.495 175.846C172.741 174.36 174.183 173.358 176.204 173.358C178.516 173.358 179.808 174.545 179.808 176.514V183H178.278V181.603H178.138C177.54 182.613 176.547 183.167 175.272 183.167ZM173.673 180.319C173.673 181.277 174.49 181.84 175.589 181.84C177.145 181.84 178.278 180.82 178.278 179.467V178.605L175.747 178.764C174.306 178.852 173.673 179.361 173.673 180.302V180.319ZM184.782 178.685H184.299V183H182.77V173.525H184.299V177.489H184.782L188.447 173.525H190.284L186.021 177.99L190.451 183H188.491L184.782 178.685ZM193.026 186.322C192.824 186.322 192.561 186.305 192.35 186.27V185.013C192.534 185.048 192.771 185.057 192.982 185.057C193.853 185.057 194.38 184.661 194.723 183.571L194.898 183.009L191.392 173.525H193.026L195.628 181.321H195.769L198.361 173.525H199.97L196.27 183.58C195.487 185.707 194.705 186.322 193.026 186.322ZM204.417 183.167C202.615 183.167 201.253 182.077 201.253 180.354V180.337C201.253 178.649 202.501 177.674 204.707 177.542L207.423 177.375V176.514C207.423 175.345 206.711 174.712 205.296 174.712C204.162 174.712 203.415 175.134 203.169 175.872L203.16 175.898H201.631L201.64 175.846C201.886 174.36 203.327 173.358 205.349 173.358C207.66 173.358 208.952 174.545 208.952 176.514V183H207.423V181.603H207.282C206.685 182.613 205.691 183.167 204.417 183.167ZM202.817 180.319C202.817 181.277 203.635 181.84 204.733 181.84C206.289 181.84 207.423 180.82 207.423 179.467V178.605L204.892 178.764C203.45 178.852 202.817 179.361 202.817 180.302V180.319ZM218.778 173.525V174.791H215.711V183H214.182V174.791H211.114V173.525H218.778ZM224.535 183.167C221.837 183.167 220.167 181.304 220.167 178.271V178.254C220.167 175.213 221.837 173.358 224.535 173.358C227.233 173.358 228.903 175.213 228.903 178.254V178.271C228.903 181.304 227.233 183.167 224.535 183.167ZM224.535 181.813C226.328 181.813 227.339 180.504 227.339 178.271V178.254C227.339 176.013 226.328 174.712 224.535 174.712C222.742 174.712 221.731 176.013 221.731 178.254V178.271C221.731 180.504 222.742 181.813 224.535 181.813ZM231.452 186.164V173.525H232.981V175.037H233.122C233.702 173.982 234.757 173.358 236.075 173.358C238.475 173.358 240.048 175.301 240.048 178.254V178.271C240.048 181.242 238.483 183.167 236.075 183.167C234.774 183.167 233.641 182.517 233.122 181.506H232.981V186.164H231.452ZM235.724 181.813C237.455 181.813 238.483 180.478 238.483 178.271V178.254C238.483 176.048 237.455 174.712 235.724 174.712C234.001 174.712 232.946 176.065 232.946 178.254V178.271C232.946 180.46 234.001 181.813 235.724 181.813ZM245.216 183.167C243.414 183.167 242.052 182.077 242.052 180.354V180.337C242.052 178.649 243.3 177.674 245.506 177.542L248.222 177.375V176.514C248.222 175.345 247.51 174.712 246.095 174.712C244.961 174.712 244.214 175.134 243.968 175.872L243.959 175.898H242.43L242.438 175.846C242.685 174.36 244.126 173.358 246.147 173.358C248.459 173.358 249.751 174.545 249.751 176.514V183H248.222V181.603H248.081C247.483 182.613 246.49 183.167 245.216 183.167ZM243.616 180.319C243.616 181.277 244.434 181.84 245.532 181.84C247.088 181.84 248.222 180.82 248.222 179.467V178.605L245.69 178.764C244.249 178.852 243.616 179.361 243.616 180.302V180.319ZM66.8857 204.167C64.1875 204.167 62.5176 202.304 62.5176 199.271V199.254C62.5176 196.213 64.1875 194.358 66.8857 194.358C69.584 194.358 71.2539 196.213 71.2539 199.254V199.271C71.2539 202.304 69.584 204.167 66.8857 204.167ZM66.8857 202.813C68.6787 202.813 69.6895 201.504 69.6895 199.271V199.254C69.6895 197.013 68.6787 195.712 66.8857 195.712C65.0928 195.712 64.082 197.013 64.082 199.254V199.271C64.082 201.504 65.0928 202.813 66.8857 202.813ZM80.043 194.525V195.791H76.9756V204H75.4463V195.791H72.3789V194.525H80.043ZM88.8408 204H87.3115V194.525H89.166L92.541 201.873H92.6816L96.0742 194.525H97.8496V204H96.3203V197.259H96.1533L93.165 203.736H91.9873L89.0078 197.259H88.8408V204ZM104.74 204.167C102.033 204.167 100.398 202.269 100.398 199.298V199.289C100.398 196.362 102.068 194.358 104.644 194.358C107.219 194.358 108.783 196.274 108.783 199.104V199.702H101.963C102.007 201.662 103.088 202.805 104.775 202.805C106.059 202.805 106.85 202.198 107.104 201.627L107.14 201.548H108.669L108.651 201.618C108.326 202.901 106.973 204.167 104.74 204.167ZM104.635 195.721C103.229 195.721 102.156 196.679 101.989 198.48H107.228C107.069 196.608 106.032 195.721 104.635 195.721ZM115.208 204.167C112.554 204.167 110.857 202.242 110.857 199.236V199.219C110.857 196.274 112.545 194.358 115.199 194.358C117.502 194.358 118.882 195.686 119.163 197.373L119.172 197.426H117.651L117.643 197.399C117.405 196.468 116.562 195.712 115.199 195.712C113.494 195.712 112.422 197.083 112.422 199.219V199.236C112.422 201.416 113.512 202.813 115.199 202.813C116.474 202.813 117.282 202.251 117.634 201.196L117.651 201.144L119.163 201.135L119.146 201.231C118.759 202.945 117.484 204.167 115.208 204.167ZM127.996 194.525V195.791H124.929V204H123.399V195.791H120.332V194.525H127.996ZM133.753 204.167C131.055 204.167 129.385 202.304 129.385 199.271V199.254C129.385 196.213 131.055 194.358 133.753 194.358C136.451 194.358 138.121 196.213 138.121 199.254V199.271C138.121 202.304 136.451 204.167 133.753 204.167ZM133.753 202.813C135.546 202.813 136.557 201.504 136.557 199.271V199.254C136.557 197.013 135.546 195.712 133.753 195.712C131.96 195.712 130.949 197.013 130.949 199.254V199.271C130.949 201.504 131.96 202.813 133.753 202.813ZM140.661 204V194.525H148.325V204H146.796V195.791H142.19V204H140.661ZM155.233 204.167C152.535 204.167 150.865 202.304 150.865 199.271V199.254C150.865 196.213 152.535 194.358 155.233 194.358C157.932 194.358 159.602 196.213 159.602 199.254V199.271C159.602 202.304 157.932 204.167 155.233 204.167ZM155.233 202.813C157.026 202.813 158.037 201.504 158.037 199.271V199.254C158.037 197.013 157.026 195.712 155.233 195.712C153.44 195.712 152.43 197.013 152.43 199.254V199.271C152.43 201.504 153.44 202.813 155.233 202.813ZM164.277 200.291C164.075 202.901 163.267 204.088 161.685 204.088C161.359 204.088 161.113 204.035 160.99 203.991V202.611C161.069 202.638 161.307 202.673 161.535 202.673C162.405 202.673 162.757 201.574 162.854 200.168L163.258 194.525H169.454V204H167.925V195.791H164.629L164.277 200.291ZM176.362 204.167C173.664 204.167 171.994 202.304 171.994 199.271V199.254C171.994 196.213 173.664 194.358 176.362 194.358C179.061 194.358 180.73 196.213 180.73 199.254V199.271C180.73 202.304 179.061 204.167 176.362 204.167ZM176.362 202.813C178.155 202.813 179.166 201.504 179.166 199.271V199.254C179.166 197.013 178.155 195.712 176.362 195.712C174.569 195.712 173.559 197.013 173.559 199.254V199.271C173.559 201.504 174.569 202.813 176.362 202.813ZM183.675 204H181.785L185.872 199.008L181.926 194.525H183.763L187.076 198.516H187.639V194.525H189.115V198.516H189.678L192.991 194.525H194.802L190.882 198.973L194.995 204H193.079L189.678 199.658H189.115V204H187.639V199.658H187.076L183.675 204ZM200.576 204.167C197.869 204.167 196.234 202.269 196.234 199.298V199.289C196.234 196.362 197.904 194.358 200.479 194.358C203.055 194.358 204.619 196.274 204.619 199.104V199.702H197.799C197.843 201.662 198.924 202.805 200.611 202.805C201.895 202.805 202.686 202.198 202.94 201.627L202.976 201.548H204.505L204.487 201.618C204.162 202.901 202.809 204.167 200.576 204.167ZM200.471 195.721C199.064 195.721 197.992 196.679 197.825 198.48H203.063C202.905 196.608 201.868 195.721 200.471 195.721ZM213.382 204V199.711H208.688V204H207.159V194.525H208.688V198.445H213.382V194.525H214.911V204H213.382ZM217.917 204V194.525H219.446V201.592H219.587L224.271 194.525H225.801V204H224.271V196.934H224.131L219.446 204H217.917ZM233.843 204V200.607H232.234L229.817 204H228.016L230.661 200.326C229.325 199.948 228.517 198.964 228.517 197.672V197.654C228.517 195.712 229.905 194.525 232.076 194.525H235.372V204H233.843ZM232.076 199.342H233.843V195.791H232.076C230.828 195.791 230.081 196.477 230.081 197.619V197.637C230.081 198.63 230.837 199.342 232.076 199.342ZM246.938 204V192.741H242.852V191.317H252.607V192.741H248.521V204H246.938ZM259.718 204.299C256.272 204.299 254.119 201.75 254.119 197.672V197.654C254.119 193.567 256.264 191.019 259.709 191.019C262.381 191.019 264.464 192.697 264.842 195.132L264.833 195.149H263.242L263.233 195.132C262.812 193.506 261.458 192.478 259.709 192.478C257.274 192.478 255.745 194.481 255.745 197.654V197.672C255.745 200.845 257.274 202.84 259.718 202.84C261.484 202.84 262.829 201.935 263.225 200.476L263.242 200.458H264.842V200.476C264.42 202.796 262.416 204.299 259.718 204.299ZM266.213 207.226L266.978 202.225H268.727L267.347 207.226H266.213ZM39.8594 228.164V215.525H41.3887V217.037H41.5293C42.1094 215.982 43.1641 215.358 44.4824 215.358C46.8818 215.358 48.4551 217.301 48.4551 220.254V220.271C48.4551 223.242 46.8906 225.167 44.4824 225.167C43.1816 225.167 42.0479 224.517 41.5293 223.506H41.3887V228.164H39.8594ZM44.1309 223.813C45.8623 223.813 46.8906 222.478 46.8906 220.271V220.254C46.8906 218.048 45.8623 216.712 44.1309 216.712C42.4082 216.712 41.3535 218.065 41.3535 220.254V220.271C41.3535 222.46 42.4082 223.813 44.1309 223.813ZM53.623 225.167C51.8213 225.167 50.459 224.077 50.459 222.354V222.337C50.459 220.649 51.707 219.674 53.9131 219.542L56.6289 219.375V218.514C56.6289 217.345 55.917 216.712 54.502 216.712C53.3682 216.712 52.6211 217.134 52.375 217.872L52.3662 217.898H50.8369L50.8457 217.846C51.0918 216.36 52.5332 215.358 54.5547 215.358C56.8662 215.358 58.1582 216.545 58.1582 218.514V225H56.6289V223.603H56.4883C55.8906 224.613 54.8975 225.167 53.623 225.167ZM52.0234 222.319C52.0234 223.277 52.8408 223.84 53.9395 223.84C55.4951 223.84 56.6289 222.82 56.6289 221.467V220.605L54.0977 220.764C52.6562 220.852 52.0234 221.361 52.0234 222.302V222.319ZM65.0049 225.167C62.3506 225.167 60.6543 223.242 60.6543 220.236V220.219C60.6543 217.274 62.3418 215.358 64.9961 215.358C67.2988 215.358 68.6787 216.686 68.96 218.373L68.9688 218.426H67.4482L67.4395 218.399C67.2021 217.468 66.3584 216.712 64.9961 216.712C63.291 216.712 62.2188 218.083 62.2188 220.219V220.236C62.2188 222.416 63.3086 223.813 64.9961 223.813C66.2705 223.813 67.0791 223.251 67.4307 222.196L67.4482 222.144L68.96 222.135L68.9424 222.231C68.5557 223.945 67.2812 225.167 65.0049 225.167ZM75.2529 225.167C72.5986 225.167 70.9023 223.242 70.9023 220.236V220.219C70.9023 217.274 72.5898 215.358 75.2441 215.358C77.5469 215.358 78.9268 216.686 79.208 218.373L79.2168 218.426H77.6963L77.6875 218.399C77.4502 217.468 76.6064 216.712 75.2441 216.712C73.5391 216.712 72.4668 218.083 72.4668 220.219V220.236C72.4668 222.416 73.5566 223.813 75.2441 223.813C76.5186 223.813 77.3271 223.251 77.6787 222.196L77.6963 222.144L79.208 222.135L79.1904 222.231C78.8037 223.945 77.5293 225.167 75.2529 225.167ZM88.041 215.525V216.791H84.9736V225H83.4443V216.791H80.377V215.525H88.041ZM93.7979 225.167C91.0996 225.167 89.4297 223.304 89.4297 220.271V220.254C89.4297 217.213 91.0996 215.358 93.7979 215.358C96.4961 215.358 98.166 217.213 98.166 220.254V220.271C98.166 223.304 96.4961 225.167 93.7979 225.167ZM93.7979 223.813C95.5908 223.813 96.6016 222.504 96.6016 220.271V220.254C96.6016 218.013 95.5908 216.712 93.7979 216.712C92.0049 216.712 90.9941 218.013 90.9941 220.254V220.271C90.9941 222.504 92.0049 223.813 93.7979 223.813ZM105.646 225V221.607H104.037L101.62 225H99.8184L102.464 221.326C101.128 220.948 100.319 219.964 100.319 218.672V218.654C100.319 216.712 101.708 215.525 103.879 215.525H107.175V225H105.646ZM103.879 220.342H105.646V216.791H103.879C102.631 216.791 101.884 217.477 101.884 218.619V218.637C101.884 219.63 102.64 220.342 103.879 220.342ZM116.403 225V220.711H111.71V225H110.181V215.525H111.71V219.445H116.403V215.525H117.933V225H116.403ZM120.938 225V215.525H122.468V222.592H122.608L127.293 215.525H128.822V225H127.293V217.934H127.152L122.468 225H120.938ZM135.713 225.167C133.006 225.167 131.371 223.269 131.371 220.298V220.289C131.371 217.362 133.041 215.358 135.616 215.358C138.191 215.358 139.756 217.274 139.756 220.104V220.702H132.936C132.979 222.662 134.061 223.805 135.748 223.805C137.031 223.805 137.822 223.198 138.077 222.627L138.112 222.548H139.642L139.624 222.618C139.299 223.901 137.945 225.167 135.713 225.167ZM135.607 216.721C134.201 216.721 133.129 217.679 132.962 219.48H138.2C138.042 217.608 137.005 216.721 135.607 216.721ZM148.888 225H147.358V215.525H149.213L152.588 222.873H152.729L156.121 215.525H157.896V225H156.367V218.259H156.2L153.212 224.736H152.034L149.055 218.259H148.888V225ZM164.787 225.167C162.08 225.167 160.445 223.269 160.445 220.298V220.289C160.445 217.362 162.115 215.358 164.69 215.358C167.266 215.358 168.83 217.274 168.83 220.104V220.702H162.01C162.054 222.662 163.135 223.805 164.822 223.805C166.105 223.805 166.896 223.198 167.151 222.627L167.187 222.548H168.716L168.698 222.618C168.373 223.901 167.02 225.167 164.787 225.167ZM164.682 216.721C163.275 216.721 162.203 217.679 162.036 219.48H167.274C167.116 217.608 166.079 216.721 164.682 216.721ZM171.774 225H169.885L173.972 220.008L170.025 215.525H171.862L175.176 219.516H175.738V215.525H177.215V219.516H177.777L181.091 215.525H182.901L178.981 219.973L183.095 225H181.179L177.777 220.658H177.215V225H175.738V220.658H175.176L171.774 225ZM185.195 227.505H183.771V223.734H184.562C185.257 223.277 185.6 222.082 185.688 220.808L186.057 215.525H192.517V223.734H194.028V227.505H192.604V225H185.195V227.505ZM190.987 223.734V216.791H187.41L187.111 220.843C187.023 221.994 186.777 223.005 186.329 223.594V223.734H190.987ZM196.744 228.322C196.542 228.322 196.278 228.305 196.067 228.27V227.013C196.252 227.048 196.489 227.057 196.7 227.057C197.57 227.057 198.098 226.661 198.44 225.571L198.616 225.009L195.109 215.525H196.744L199.346 223.321H199.486L202.079 215.525H203.688L199.987 225.58C199.205 227.707 198.423 228.322 196.744 228.322ZM210.938 225V215.525H218.603V225H217.073V216.791H212.468V225H210.938ZM222.426 228.322C222.224 228.322 221.96 228.305 221.749 228.27V227.013C221.934 227.048 222.171 227.057 222.382 227.057C223.252 227.057 223.779 226.661 224.122 225.571L224.298 225.009L220.791 215.525H222.426L225.027 223.321H225.168L227.761 215.525H229.369L225.669 225.58C224.887 227.707 224.104 228.322 222.426 228.322ZM237.78 225V220.711H233.087V225H231.558V215.525H233.087V219.445H237.78V215.525H239.31V225H237.78ZM244.328 220.685H243.845V225H242.315V215.525H243.845V219.489H244.328L247.993 215.525H249.83L245.567 219.99L249.997 225H248.037L244.328 220.685ZM258.531 215.525V216.791H255.464V225H253.935V216.791H250.867V215.525H258.531ZM263.207 225.167C261.405 225.167 260.043 224.077 260.043 222.354V222.337C260.043 220.649 261.291 219.674 263.497 219.542L266.213 219.375V218.514C266.213 217.345 265.501 216.712 264.086 216.712C262.952 216.712 262.205 217.134 261.959 217.872L261.95 217.898H260.421L260.43 217.846C260.676 216.36 262.117 215.358 264.139 215.358C266.45 215.358 267.742 216.545 267.742 218.514V225H266.213V223.603H266.072C265.475 224.613 264.481 225.167 263.207 225.167ZM261.607 222.319C261.607 223.277 262.425 223.84 263.523 223.84C265.079 223.84 266.213 222.82 266.213 221.467V220.605L263.682 220.764C262.24 220.852 261.607 221.361 261.607 222.302V222.319ZM272.233 225H270.704V215.525H272.559L275.934 222.873H276.074L279.467 215.525H281.242V225H279.713V218.259H279.546L276.558 224.736H275.38L272.4 218.259H272.233V225ZM284.257 225V215.525H285.786V222.592H285.927L290.611 215.525H292.141V225H290.611V217.934H290.471L285.786 225H284.257ZM83.7959 246V236.525H91.46V246H89.9307V237.791H85.3252V246H83.7959ZM98.3682 246.167C95.6699 246.167 94 244.304 94 241.271V241.254C94 238.213 95.6699 236.358 98.3682 236.358C101.066 236.358 102.736 238.213 102.736 241.254V241.271C102.736 244.304 101.066 246.167 98.3682 246.167ZM98.3682 244.813C100.161 244.813 101.172 243.504 101.172 241.271V241.254C101.172 239.013 100.161 237.712 98.3682 237.712C96.5752 237.712 95.5645 239.013 95.5645 241.254V241.271C95.5645 243.504 96.5752 244.813 98.3682 244.813ZM111.341 237.791H106.806V246H105.276V236.525H111.341V237.791ZM113.652 249.164V236.525H115.182V238.037H115.322C115.902 236.982 116.957 236.358 118.275 236.358C120.675 236.358 122.248 238.301 122.248 241.254V241.271C122.248 244.242 120.684 246.167 118.275 246.167C116.975 246.167 115.841 245.517 115.322 244.506H115.182V249.164H113.652ZM117.924 244.813C119.655 244.813 120.684 243.478 120.684 241.271V241.254C120.684 239.048 119.655 237.712 117.924 237.712C116.201 237.712 115.146 239.065 115.146 241.254V241.271C115.146 243.46 116.201 244.813 117.924 244.813ZM125.271 249.322C125.069 249.322 124.806 249.305 124.595 249.27V248.013C124.779 248.048 125.017 248.057 125.228 248.057C126.098 248.057 126.625 247.661 126.968 246.571L127.144 246.009L123.637 236.525H125.271L127.873 244.321H128.014L130.606 236.525H132.215L128.515 246.58C127.732 248.707 126.95 249.322 125.271 249.322ZM137.277 246.176C135.256 246.176 133.718 245.174 133.524 243.645L133.516 243.574H135.071L135.089 243.645C135.282 244.418 136.126 244.91 137.277 244.91C138.675 244.91 139.501 244.233 139.501 243.293V243.275C139.501 242.247 138.728 241.772 137.277 241.772H135.801V240.507H137.277C138.49 240.507 139.167 240.023 139.167 239.039V239.021C139.167 238.213 138.543 237.615 137.33 237.615C136.249 237.615 135.432 238.099 135.282 238.854L135.273 238.898H133.779L133.788 238.837C134.008 237.316 135.396 236.35 137.33 236.35C139.448 236.35 140.661 237.396 140.661 238.907V238.925C140.661 239.883 140.037 240.753 139.097 240.973V241.113C140.345 241.386 141.004 242.142 141.004 243.196V243.214C141.004 244.972 139.483 246.176 137.277 246.176ZM145.557 241.685H145.073V246H143.544V236.525H145.073V240.489H145.557L149.222 236.525H151.059L146.796 240.99L151.226 246H149.266L145.557 241.685ZM153.335 246V236.525H154.864V243.592H155.005L159.689 236.525H161.219V246H159.689V238.934H159.549L154.864 246H153.335ZM169.296 246V236.525H173.312C175.105 236.525 176.151 237.501 176.151 238.986V239.004C176.151 239.944 175.492 240.832 174.604 241.017V241.157C175.809 241.324 176.573 242.168 176.573 243.267V243.284C176.573 244.928 175.369 246 173.33 246H169.296ZM170.825 240.533H172.847C174.077 240.533 174.631 240.059 174.631 239.162V239.145C174.631 238.336 174.156 237.791 173.093 237.791H170.825V240.533ZM170.825 244.734H173.269C174.429 244.734 175.018 244.207 175.018 243.258V243.24C175.018 242.238 174.341 241.799 172.979 241.799H170.825V244.734ZM184.422 246V233.317H186.259L190.601 243.899H190.741L195.083 233.317H196.92V246H195.443V236.314H195.347L191.339 246H190.003L185.995 236.314H185.898V246H184.422ZM204.03 246.167C201.332 246.167 199.662 244.304 199.662 241.271V241.254C199.662 238.213 201.332 236.358 204.03 236.358C206.729 236.358 208.398 238.213 208.398 241.254V241.271C208.398 244.304 206.729 246.167 204.03 246.167ZM204.03 244.813C205.823 244.813 206.834 243.504 206.834 241.271V241.254C206.834 239.013 205.823 237.712 204.03 237.712C202.237 237.712 201.227 239.013 201.227 241.254V241.271C201.227 243.504 202.237 244.813 204.03 244.813ZM214.823 246.167C212.169 246.167 210.473 244.242 210.473 241.236V241.219C210.473 238.274 212.16 236.358 214.814 236.358C217.117 236.358 218.497 237.686 218.778 239.373L218.787 239.426H217.267L217.258 239.399C217.021 238.468 216.177 237.712 214.814 237.712C213.109 237.712 212.037 239.083 212.037 241.219V241.236C212.037 243.416 213.127 244.813 214.814 244.813C216.089 244.813 216.897 244.251 217.249 243.196L217.267 243.144L218.778 243.135L218.761 243.231C218.374 244.945 217.1 246.167 214.823 246.167ZM223.199 241.685H222.716V246H221.187V236.525H222.716V240.489H223.199L226.864 236.525H228.701L224.438 240.99L228.868 246H226.908L223.199 241.685ZM230.978 246V236.525H234.994C236.787 236.525 237.833 237.501 237.833 238.986V239.004C237.833 239.944 237.174 240.832 236.286 241.017V241.157C237.49 241.324 238.255 242.168 238.255 243.267V243.284C238.255 244.928 237.051 246 235.012 246H230.978ZM232.507 240.533H234.528C235.759 240.533 236.312 240.059 236.312 239.162V239.145C236.312 238.336 235.838 237.791 234.774 237.791H232.507V240.533ZM232.507 244.734H234.95C236.11 244.734 236.699 244.207 236.699 243.258V243.24C236.699 242.238 236.022 241.799 234.66 241.799H232.507V244.734ZM244.627 246.167C241.92 246.167 240.285 244.269 240.285 241.298V241.289C240.285 238.362 241.955 236.358 244.53 236.358C247.105 236.358 248.67 238.274 248.67 241.104V241.702H241.85C241.894 243.662 242.975 244.805 244.662 244.805C245.945 244.805 246.736 244.198 246.991 243.627L247.026 243.548H248.556L248.538 243.618C248.213 244.901 246.859 246.167 244.627 246.167ZM244.521 237.721C243.115 237.721 242.043 238.679 241.876 240.48H247.114C246.956 238.608 245.919 237.721 244.521 237.721ZM96.6191 267V257.525H98.1484V264.592H98.2891L102.974 257.525H104.503V267H102.974V259.934H102.833L98.1484 267H96.6191ZM112.58 267V257.525H116.597C118.39 257.525 119.436 258.501 119.436 259.986V260.004C119.436 260.944 118.776 261.832 117.889 262.017V262.157C119.093 262.324 119.857 263.168 119.857 264.267V264.284C119.857 265.928 118.653 267 116.614 267H112.58ZM114.109 261.533H116.131C117.361 261.533 117.915 261.059 117.915 260.162V260.145C117.915 259.336 117.44 258.791 116.377 258.791H114.109V261.533ZM114.109 265.734H116.553C117.713 265.734 118.302 265.207 118.302 264.258V264.24C118.302 263.238 117.625 262.799 116.263 262.799H114.109V265.734ZM122.441 267V257.525H123.971V260.566H125.825C127.996 260.566 129.385 261.814 129.385 263.774V263.792C129.385 265.752 127.996 267 125.825 267H122.441ZM131.037 267V257.525H132.566V267H131.037ZM125.825 261.832H123.971V265.734H125.825C127.073 265.734 127.855 264.961 127.855 263.792V263.774C127.855 262.597 127.064 261.832 125.825 261.832ZM141.637 258.791H137.102V267H135.572V257.525H141.637V258.791ZM143.948 270.164V257.525H145.478V259.037H145.618C146.198 257.982 147.253 257.358 148.571 257.358C150.971 257.358 152.544 259.301 152.544 262.254V262.271C152.544 265.242 150.979 267.167 148.571 267.167C147.271 267.167 146.137 266.517 145.618 265.506H145.478V270.164H143.948ZM148.22 265.813C149.951 265.813 150.979 264.478 150.979 262.271V262.254C150.979 260.048 149.951 258.712 148.22 258.712C146.497 258.712 145.442 260.065 145.442 262.254V262.271C145.442 264.46 146.497 265.813 148.22 265.813ZM155.567 270.322C155.365 270.322 155.102 270.305 154.891 270.27V269.013C155.075 269.048 155.312 269.057 155.523 269.057C156.394 269.057 156.921 268.661 157.264 267.571L157.439 267.009L153.933 257.525H155.567L158.169 265.321H158.31L160.902 257.525H162.511L158.811 267.58C158.028 269.707 157.246 270.322 155.567 270.322ZM167.573 267.176C165.552 267.176 164.014 266.174 163.82 264.645L163.812 264.574H165.367L165.385 264.645C165.578 265.418 166.422 265.91 167.573 265.91C168.971 265.91 169.797 265.233 169.797 264.293V264.275C169.797 263.247 169.023 262.772 167.573 262.772H166.097V261.507H167.573C168.786 261.507 169.463 261.023 169.463 260.039V260.021C169.463 259.213 168.839 258.615 167.626 258.615C166.545 258.615 165.728 259.099 165.578 259.854L165.569 259.898H164.075L164.084 259.837C164.304 258.316 165.692 257.35 167.626 257.35C169.744 257.35 170.957 258.396 170.957 259.907V259.925C170.957 260.883 170.333 261.753 169.393 261.973V262.113C170.641 262.386 171.3 263.142 171.3 264.196V264.214C171.3 265.972 169.779 267.176 167.573 267.176ZM175.853 262.685H175.369V267H173.84V257.525H175.369V261.489H175.853L179.518 257.525H181.354L177.092 261.99L181.521 267H179.562L175.853 262.685ZM183.631 267V257.525H185.16V264.592H185.301L189.985 257.525H191.515V267H189.985V259.934H189.845L185.16 267H183.631ZM202.202 267.167C200.4 267.167 199.038 266.077 199.038 264.354V264.337C199.038 262.649 200.286 261.674 202.492 261.542L205.208 261.375V260.514C205.208 259.345 204.496 258.712 203.081 258.712C201.947 258.712 201.2 259.134 200.954 259.872L200.945 259.898H199.416L199.425 259.846C199.671 258.36 201.112 257.358 203.134 257.358C205.445 257.358 206.737 258.545 206.737 260.514V267H205.208V265.603H205.067C204.47 266.613 203.477 267.167 202.202 267.167ZM200.603 264.319C200.603 265.277 201.42 265.84 202.519 265.84C204.074 265.84 205.208 264.82 205.208 263.467V262.605L202.677 262.764C201.235 262.852 200.603 263.361 200.603 264.302V264.319ZM209.699 267V257.525H213.716C215.509 257.525 216.555 258.501 216.555 259.986V260.004C216.555 260.944 215.896 261.832 215.008 262.017V262.157C216.212 262.324 216.977 263.168 216.977 264.267V264.284C216.977 265.928 215.772 267 213.733 267H209.699ZM211.229 261.533H213.25C214.48 261.533 215.034 261.059 215.034 260.162V260.145C215.034 259.336 214.56 258.791 213.496 258.791H211.229V261.533ZM211.229 265.734H213.672C214.832 265.734 215.421 265.207 215.421 264.258V264.24C215.421 263.238 214.744 262.799 213.382 262.799H211.229V265.734ZM225.722 257.525V258.791H222.654V267H221.125V258.791H218.058V257.525H225.722ZM231.479 267.167C228.78 267.167 227.11 265.304 227.11 262.271V262.254C227.11 259.213 228.78 257.358 231.479 257.358C234.177 257.358 235.847 259.213 235.847 262.254V262.271C235.847 265.304 234.177 267.167 231.479 267.167ZM231.479 265.813C233.271 265.813 234.282 264.504 234.282 262.271V262.254C234.282 260.013 233.271 258.712 231.479 258.712C229.686 258.712 228.675 260.013 228.675 262.254V262.271C228.675 264.504 229.686 265.813 231.479 265.813Z" fill="white"/>
</svg>
