<svg width="24" height="24" viewBox="0 0 24 24" fill="none" xmlns="http://www.w3.org/2000/svg">
<path d="M12 20.75C16.8325 20.75 20.75 16.8325 20.75 12C20.75 7.16751 16.8325 3.25 12 3.25C7.16751 3.25 3.25 7.16751 3.25 12C3.25 16.8325 7.16751 20.75 12 20.75Z" stroke="#8D8F96" stroke-width="1.5" stroke-miterlimit="10" stroke-linecap="round" stroke-linejoin="round"/>
<mask id="mask0_4353_14404" style="mask-type:luminance" maskUnits="userSpaceOnUse" x="10" y="2" width="9" height="21">
<path d="M18.7266 2.0437H10.7266V22.0437H18.7266V2.0437Z" fill="white"/>
<path d="M12.7266 4.0437C14.952 5.99279 16.3629 8.83639 16.3629 12C16.3629 15.1709 14.9593 18.0145 12.7266 19.9563" fill="black"/>
</mask>
<g mask="url(#mask0_4353_14404)">
<path d="M13.7148 2.91528C13.0916 2.36947 12.144 2.43221 11.5982 3.05541C11.0523 3.67861 11.1151 4.62629 11.7383 5.1721L13.7148 2.91528ZM11.7422 18.8245C11.1171 19.3682 11.0511 20.3156 11.5947 20.9407C12.1384 21.5658 13.0858 21.6318 13.7109 21.0882L11.7422 18.8245ZM11.7383 5.1721C13.6577 6.85311 14.8629 9.29346 14.8629 12H17.8629C17.8629 8.37929 16.2464 5.13245 13.7148 2.91528L11.7383 5.1721ZM14.8629 12C14.8629 14.7169 13.6627 17.1543 11.7422 18.8245L13.7109 21.0882C16.2559 18.8748 17.8629 15.6249 17.8629 12H14.8629Z" fill="#8D8F96"/>
</g>
<mask id="mask1_4353_14404" style="mask-type:luminance" maskUnits="userSpaceOnUse" x="5" y="2" width="9" height="21">
<path d="M13.6289 2.05078H5.62891V22.0508H13.6289V2.05078Z" fill="white"/>
<path d="M11.2653 19.9638C9.03254 18.0147 7.62891 15.1707 7.62891 12.0071C7.62891 8.83619 9.03254 5.9926 11.2653 4.05078" fill="black"/>
</mask>
<g mask="url(#mask1_4353_14404)">
<path d="M10.2788 21.0938C10.9029 21.6386 11.8505 21.5743 12.3953 20.9502C12.9401 20.3261 12.8758 19.3786 12.2517 18.8338L10.2788 21.0938ZM12.2496 5.1826C12.8747 4.63895 12.9407 3.6915 12.3971 3.06641C11.8535 2.44132 10.906 2.3753 10.2809 2.91894L12.2496 5.1826ZM12.2517 18.8338C10.3285 17.1549 9.12891 14.7158 9.12891 12.0071H6.12891C6.12891 15.6257 7.73659 18.8745 10.2788 21.0938L12.2517 18.8338ZM9.12891 12.0071C9.12891 9.2902 10.3292 6.85285 12.2496 5.1826L10.2809 2.91894C7.73593 5.13233 6.12891 8.38217 6.12891 12.0071H9.12891Z" fill="#8D8F96"/>
</g>
<path d="M12 4V20" stroke="#8D8F96" stroke-width="1.5" stroke-miterlimit="10" stroke-linecap="round" stroke-linejoin="round"/>
<path d="M4.72656 9.09094H19.272" stroke="#8D8F96" stroke-width="1.5" stroke-miterlimit="10" stroke-linecap="round" stroke-linejoin="round"/>
<path d="M4.72656 14.9091H19.272" stroke="#8D8F96" stroke-width="1.5" stroke-miterlimit="10" stroke-linecap="round" stroke-linejoin="round"/>
</svg>
